<svg data-v-0dd9719b="" version="1.0" xmlns="http://www.w3.org/2000/svg" xmlns:xlink="http://www.w3.org/1999/xlink" width="100%" height="100%" viewBox="0 0 340.000000 250.000000" preserveAspectRatio="xMidYMid meet" color-interpolation-filters="sRGB" style="margin: auto;"> <rect data-v-0dd9719b="" x="0" y="0" width="100%" height="100%" fill="#FFFFFF" fill-opacity="1" class="background"></rect> <rect data-v-0dd9719b="" x="0" y="0" width="100%" height="100%" fill="url(#watermark)" fill-opacity="1" class="watermarklayer"></rect> <g data-v-0dd9719b="" fill="#300000" class="icon-text-wrapper icon-svg-group iconsvg" transform="translate(65.47999572753906,94.98348999023438)"><g class="iconsvg-imagesvg" transform="translate(0,0)"><g><rect fill="#300000" fill-opacity="0" stroke-width="2" x="0" y="0" width="60" height="60.033018159987996" class="image-rect"></rect> <svg x="0" y="0" width="60" height="60.033018159987996" filtersec="colorsb52555446" class="image-svg-svg primary" style="overflow: visible;"><svg xmlns="http://www.w3.org/2000/svg" viewBox="0 -0.000057221815950470045 119.93415069580078 120.00004577636719"><defs><clipPath id="abc6873ee-894b-4989-8f83-475b2925b8c1" transform="translate(-.33 -.33)"><path fill="none" d="M0 0h120.59v120.59H0z"></path></clipPath></defs><g><g clip-path="url(#abc6873ee-894b-4989-8f83-475b2925b8c1)"><path d="M100.47 49.6c-14.41 7.97-21.46 38.95-46.8 46.37 0 0 16.09-10.87 15.86-17 0 0-35.23 30.68-67.37-9 0 0 48.26 36.16 84-22.32 2.28-3.73 7-9 16.6-5.58a11.89 11.89 0 0 0 8.08-.52c3.47-1.37 1.54 1.47-10.37 8.05zM59.89 0a59.82 59.82 0 0 0-39 14.39c5.93 13.41 18.9 33.38 44.07 33.28 0 0-34 2.92-49.9-27.49a61.85 61.85 0 0 0-4.52 5.68C17.8 38.54 34.44 57.29 68.37 53c0 0-31.36 17.26-64.15-15.4a57.32 57.32 0 0 0-2.44 7.55c10.25 9.26 36.82 27.91 72.64 13.26 0 0-32 33.93-74.42 4.4A60 60 0 1 0 59.89 0z" fill="#ea3637"></path></g></g></svg></svg> <!----></g></g> <g transform="translate(66,7.235406875610352)"><g data-gra="path-name" fill-rule="" class="tp-name iconsvg-namesvg" transform="translate(0,0)"><g transform="scale(0.96)"><g><path d="M21.06-30.02L27.4-30.02 27.4 0 21.06 0 21.06-12.42 9.45-12.42 9.45 0 3.06 0 3.06-30.02 9.45-30.02 9.45-17.77 21.06-17.77 21.06-30.02ZM45.27-30.02L56.02-30.02 56.02-24.66 47.7-24.66Q44.46-24.66 42.98-24.21 41.49-23.76 40.5-22.45L40.5-22.45Q39.83-21.55 39.58-20.65 39.33-19.75 39.15-17.59L39.15-17.59 56.02-17.59 56.02-12.24 39.15-12.24Q39.51-8.37 41.45-6.86 43.38-5.35 48.02-5.35L48.02-5.35 56.02-5.35 56.02 0 47.7 0Q44.33 0 41.76-0.4L41.76-0.4Q37.71-1.08 35.33-3.96L35.33-3.96Q31.91-8.1 31.91-15.16L31.91-15.16Q31.91-22.99 36.72-27.36L36.72-27.36Q38.38-28.84 40.25-29.43 42.12-30.02 45.27-30.02L45.27-30.02ZM79.42 0L67.19-22 67.19 0 61.06 0 61.06-30.02 69.25-30.02 81.18-7.65 81.18-30.02 87.25-30.02 87.25 0 79.42 0ZM97.92 0L90.45 0 102.87-30.02 110.2-30.02 122.63 0 115.16 0 112.23-6.93 100.84-6.93 97.92 0ZM110.83-12.29L106.56-22.77 102.28-12.29 110.83-12.29ZM144.22 0L131.99-22 131.99 0 125.87 0 125.87-30.02 134.06-30.02 145.98-7.65 145.98-30.02 152.06-30.02 152.06 0 144.22 0Z" transform="translate(-3.059999942779541, 30.020000457763672)"></path></g> <!----> <!----> <!----> <!----> <!----> <!----> <!----></g></g> <g data-gra="path-slogan" fill-rule="" class="tp-slogan iconsvg-slogansvg" fill="#300000" transform="translate(5,33.8192024230957)"><rect x="0" height="1" y="4.870000839233398" width="47.452003479003906"></rect> <rect height="1" y="4.870000839233398" width="47.452003479003906" x="85.58800506591797"></rect> <g transform="translate(50.452003479003906,0)"><g transform="scale(1.2000000000000002)"><path d="M7.83-8.58L4.59-3.47L4.59 0L3.42 0L3.42-3.47L0.19-8.58L1.55-8.58L3.98-4.45L6.47-8.58L7.83-8.58ZM17.14-6.09L17.14-6.09L16.06-6.09Q15.97-7.73 13.91-7.83L13.91-7.83Q11.98-7.78 11.98-6.33L11.98-6.33Q11.98-5.39 13.02-5.25L13.02-5.25L15.45-4.69Q17.38-4.22 17.38-2.34L17.38-2.34Q17.33 0.05 14 0.14L14 0.14Q12.17 0.14 11.42-0.61L11.42-0.61Q10.48-1.31 10.53-2.77L10.53-2.77L11.66-2.77Q11.70-0.80 14-0.75L14-0.75Q16.25-0.80 16.30-2.20L16.30-2.20Q16.48-3.38 14.42-3.75L14.42-3.75L12.64-4.13Q10.81-4.64 10.81-6.19L10.81-6.19Q10.95-8.72 13.81-8.81L13.81-8.81Q17.05-8.81 17.14-6.09ZM21.67-1.03L26.97-1.03L26.97 0L20.22 0L20.22-0.94L25.47-7.59L20.59-7.59L20.59-8.58L26.97-8.58L26.97-7.59L21.67-1.03Z" transform="translate(-0.1875, 8.8125)"></path></g></g></g></g></g><defs v-gra="od"></defs></svg>